<svg width="52" height="52" viewBox="0 0 52 52" fill="none" xmlns="http://www.w3.org/2000/svg">
<path d="M18.72 7.28003C8.385 7.28003 0 15.665 0 26C0 36.335 8.385 44.72 18.72 44.72C19.9916 44.72 21.2266 44.5697 22.425 44.33C23.5178 44.525 24.7325 44.72 26 44.72C27.2716 44.72 28.5066 44.5697 29.705 44.33C30.7978 44.525 32.0125 44.72 33.28 44.72C43.615 44.72 52 36.335 52 26C52 15.665 43.615 7.28003 33.28 7.28003C32.0816 7.28003 30.8791 7.38565 29.705 7.67003C28.5066 7.43034 27.2716 7.28003 26 7.28003C24.8016 7.28003 23.5991 7.38565 22.425 7.67003C21.2266 7.43034 19.9916 7.28003 18.72 7.28003ZM18.72 9.36003C19.8047 9.36003 20.8487 9.45753 21.8725 9.65253C22.0512 9.75409 22.2544 9.79878 22.4575 9.78253C29.8553 11.4766 35.36 18.0741 35.36 26C35.36 33.9463 29.8228 40.5478 22.3925 42.2175C22.2219 42.2216 22.0553 42.2663 21.905 42.3475C20.8691 42.5466 19.8169 42.64 18.72 42.64C9.50625 42.64 2.08 35.2138 2.08 26C2.08 16.7863 9.50625 9.36003 18.72 9.36003ZM27.43 9.45753C28.0109 9.50628 28.5878 9.54284 29.1525 9.65253C29.3312 9.75409 29.5344 9.79878 29.7375 9.78253C37.1353 11.4766 42.64 18.0741 42.64 26C42.64 33.9463 37.1028 40.5478 29.6725 42.2175C29.5019 42.2216 29.3353 42.2663 29.185 42.3475C28.6122 42.4572 28.0231 42.4938 27.43 42.5425C33.3816 39.4063 37.44 33.1947 37.44 26C37.44 18.8053 33.3816 12.5938 27.43 9.45753ZM34.71 9.45753C43.2453 10.1888 49.92 17.2738 49.92 26C49.92 34.7263 43.2453 41.8113 34.71 42.5425C40.6616 39.4063 44.72 33.1947 44.72 26C44.72 18.8053 40.6616 12.5938 34.71 9.45753ZM17.68 14.56V16.835C16.0144 17.0422 13 18.5007 13 22.035C13 28.6894 22.685 25.2647 22.685 30.2575C22.685 31.9232 21.9456 33.475 18.72 33.475C15.4944 33.475 14.56 30.9928 14.56 29.64H12.48C12.7928 34.1128 15.9128 35.1447 17.68 35.4575V37.44H19.76V35.4575C21.32 35.3519 24.96 34.2225 24.96 30.0625C24.96 26.6297 22.1406 25.6832 19.435 25.0575C17.2494 24.5375 15.275 24.0257 15.275 21.84C15.275 20.9057 15.6975 18.8175 18.8175 18.8175C21.0031 18.8175 22.0472 20.1744 22.36 21.84H24.44C23.8144 19.5528 22.7744 17.485 19.76 16.965V14.56H17.68Z" fill="#5D5DFF"/>
</svg>
