<svg width="52" height="52" viewBox="0 0 52 52" fill="none" xmlns="http://www.w3.org/2000/svg">
<g clip-path="url(#clip0_120_327)">
<path d="M26 3.12012C19.694 3.12012 14.56 8.25417 14.56 14.5601C14.56 20.8661 19.694 26.0001 26 26.0001C32.3059 26.0001 37.44 20.8661 37.44 14.5601C37.44 8.25417 32.3059 3.12012 26 3.12012ZM26 5.20012C31.1819 5.20012 35.36 9.37822 35.36 14.5601C35.36 19.742 31.1819 23.9201 26 23.9201C20.8181 23.9201 16.64 19.742 16.64 14.5601C16.64 9.37822 20.8181 5.20012 26 5.20012ZM26 8.32012C25.6588 9.89676 24.7 10.6703 22.36 10.6703V11.9601H25.48V20.8001H27.04V8.32012H26ZM14.0034 26.0001C11.053 26.0001 9.7132 26.7144 8.23668 27.2981C8.23601 27.2981 8.23533 27.2981 8.23465 27.2981C5.41958 28.4136 0.589029 30.737 0.589029 30.737C0.465751 30.7962 0.355342 30.8791 0.264108 30.981C0.172874 31.0828 0.102603 31.2017 0.0573068 31.3307C0.0120109 31.4597 -0.0074215 31.5964 0.000119324 31.733C0.00766015 31.8695 0.0420265 32.0032 0.101256 32.1265C0.160485 32.2498 0.243416 32.3601 0.345313 32.4513C0.44721 32.5426 0.566076 32.6128 0.695122 32.658C0.824168 32.7033 0.960866 32.7227 1.09741 32.7151C1.23395 32.7075 1.36766 32.6731 1.4909 32.6139C1.4909 32.6139 6.35095 30.2819 9.00043 29.2318C10.6231 28.5904 11.3565 28.0801 14.0034 28.0801C19.8447 28.0801 19.6867 30.7025 22.0797 32.1386C22.0803 32.1386 22.081 32.1386 22.0817 32.1386C22.8942 32.6258 24.2445 33.0063 25.6607 33.3756C25.8464 33.5182 26.0747 33.5941 26.3087 33.5909C28.0133 34.0029 29.8187 34.3201 31.2 34.3201C32.4155 34.3201 33.2742 34.5532 33.7309 34.8401C34.1876 35.127 34.32 35.3637 34.32 35.8801C34.32 36.4855 34.1806 36.6922 33.7248 36.9628C33.269 37.2333 32.3965 37.4401 31.2 37.4401H25.1672C22.6205 37.4401 19.0064 36.4407 19.0064 36.4407C18.8737 36.3982 18.7339 36.3828 18.5951 36.3954C18.4564 36.408 18.3216 36.4483 18.1988 36.5139C18.0759 36.5796 17.9675 36.6693 17.88 36.7776C17.7924 36.886 17.7275 37.0108 17.6892 37.1447C17.6508 37.2786 17.6397 37.4189 17.6566 37.5571C17.6734 37.6954 17.7179 37.8289 17.7873 37.9496C17.8567 38.0704 17.9497 38.176 18.0607 38.2601C18.1717 38.3443 18.2985 38.4053 18.4336 38.4395C18.4336 38.4395 22.1061 39.5201 25.1672 39.5201H31.2C32.6075 39.5201 33.814 39.3299 34.7872 38.7523C35.0311 38.6075 35.177 38.3521 35.3742 38.149C35.5206 38.1233 35.6598 38.0665 35.7825 37.9825L45.1343 31.6917H45.1364C46.7581 30.7296 47.8767 30.4562 48.5428 30.4689C49.2092 30.4816 49.4614 30.6926 49.6742 30.9706C49.9826 31.374 50.0068 31.588 49.8062 32.0634C49.6057 32.5388 49.0324 33.2249 48.0289 33.9362C46.7802 34.8222 33.0384 43.9501 31.4234 44.8846C30.2283 45.5773 29.2648 46.3147 28.1632 46.6275C27.0621 46.9401 25.7595 46.9366 23.6295 45.9003H23.6275C22.2048 45.2072 16.1955 42.0689 14.2451 41.0618C13.1673 40.5048 12.2587 40.197 11.3303 40.2493C10.4019 40.3016 9.61563 40.7066 8.78918 41.2345C8.78647 41.2365 8.78376 41.2385 8.78106 41.2406L5.9759 43.0707C5.85975 43.1445 5.7594 43.2406 5.68065 43.3534C5.60189 43.4663 5.54632 43.5936 5.51713 43.7281C5.48794 43.8626 5.48573 44.0015 5.51061 44.1368C5.5355 44.2721 5.58699 44.4012 5.6621 44.5165C5.73721 44.6318 5.83446 44.731 5.9482 44.8085C6.06193 44.8859 6.18991 44.94 6.32471 44.9676C6.4595 44.9953 6.59844 44.9959 6.73348 44.9694C6.86851 44.943 6.99696 44.89 7.11137 44.8136L9.91856 42.9834C10.6351 42.5269 11.059 42.3492 11.4481 42.3273C11.8397 42.3052 12.3621 42.4304 13.2904 42.9103C15.2231 43.9082 21.154 47.0074 22.7175 47.769C25.1736 48.9645 27.1488 49.0778 28.732 48.6282C30.3152 48.1787 31.4443 47.2761 32.4654 46.6843C34.6319 45.4307 47.6658 36.7431 49.2314 35.6323V35.6343C50.4243 34.7888 51.2865 33.9034 51.7217 32.8718C52.1568 31.8403 52.0166 30.611 51.3256 29.7071C50.7822 28.9971 49.8117 28.4123 48.5814 28.3889C47.7113 28.3723 46.6705 28.7012 45.5243 29.2156C45.481 29.0076 45.5821 28.778 45.4898 28.5778C45.1362 27.8108 44.3483 27.2704 43.4626 27.095C43.4619 27.095 43.4613 27.095 43.4606 27.095C42.2988 26.8653 40.983 27.2232 39.6804 27.8221C39.5877 27.5398 39.517 27.2438 39.329 27.0198C38.7713 26.3551 37.969 26.1189 37.2226 26.0611C35.7298 25.9453 34.1769 26.4327 33.0545 27.1011C31.4868 28.034 26.8331 30.9824 26.2072 31.3789C24.8696 31.0114 23.5099 30.5688 23.1501 30.3531V30.3551C22.1985 29.7838 20.561 26.0001 14.0034 26.0001ZM37.0622 28.135C37.4778 28.1672 37.6766 28.2873 37.7345 28.3564C37.7705 28.3993 37.7457 28.6684 37.7467 28.8601L32.6422 32.3803C32.1807 32.313 31.7242 32.2401 31.2 32.2401C30.7349 32.2401 29.9061 32.0357 29.2337 31.9395C31.0343 30.8036 33.071 29.5089 34.1168 28.8865C34.8144 28.4712 36.2309 28.0705 37.0622 28.135ZM42.3759 29.1181C42.6467 29.0927 42.8802 29.0991 43.0584 29.1343C43.4904 29.2199 43.5321 29.3002 43.6007 29.4492C43.6482 29.552 43.6166 29.9059 43.5926 30.2231L36.2151 35.1834C36.0377 34.4189 35.6479 33.7416 35.0167 33.27L39.3514 30.282C39.3708 30.2684 39.3898 30.2542 39.4082 30.2393C40.4141 29.5515 41.5634 29.1941 42.3759 29.1181Z" fill="#5D5DFF"/>
</g>
<defs>
<clipPath id="clip0_120_327">
<rect width="52" height="52" fill="white"/>
</clipPath>
</defs>
</svg>
