<?xml version="1.0" encoding="UTF-8"?>
<svg width="22px" height="22px" viewBox="0 0 22 22" version="1.1" xmlns="http://www.w3.org/2000/svg" xmlns:xlink="http://www.w3.org/1999/xlink">
    <!-- Generator: Sketch 64 (93537) - https://sketch.com -->
    <title>fb</title>
    <desc>Created with Sketch.</desc>
    <g id="Page-1" stroke="none" stroke-width="1" fill="none" fill-rule="evenodd">
        <g id="contacts-copy" transform="translate(-1311.000000, -836.000000)" fill="#FFFFFF">
            <g id="fb" transform="translate(1311.000000, 836.000000)">
                <rect id="Rectangle" opacity="0.01" x="0" y="0" width="22" height="22"></rect>
                <path d="M11.8214286,18.1666667 L11.8681813,11.7045638 L13.640828,11.7045638 C13.8917774,11.7045638 14.1038508,11.5185471 14.1365621,11.2697388 L14.3361882,9.7513426 C14.3721834,9.47755626 14.1794155,9.22642874 13.9056292,9.19043358 C13.8840204,9.18759264 13.8622489,9.18616761 13.8404542,9.18616761 L11.8681813,9.18616761 L11.8681813,9.18616761 L11.8681813,7.57833048 C11.8681813,6.8491967 12.0745896,6.35231628 13.1404924,6.35231628 L14,6.3519477 C14.2760586,6.35161485 14.4997855,6.12779193 14.5,5.85173328 L14.5,4.55823552 C14.4999326,4.29674211 14.2984179,4.07942639 14.0376678,4.05972399 C13.5107255,4.019908 13.0044888,4 12.5189577,4 C10.5588398,4 9.21689011,5.17363285 9.21689011,7.32891913 L9.21689011,9.18616761 L7.5,9.18616761 C7.22385763,9.18616761 7,9.41002523 7,9.68616761 L7,11.2045638 C7,11.4807062 7.22385763,11.7045638 7.5,11.7045638 L9.21689011,11.7045638 L9.21689011,11.7045638 L9.21689011,17.6666667 C9.21689011,17.942809 9.44074774,18.1666667 9.71689011,18.1666667" id="Path"></path>
            </g>
        </g>
    </g>
</svg>