<?xml version="1.0" encoding="UTF-8"?>
<svg width="22px" height="22px" viewBox="0 0 22 22" version="1.1" xmlns="http://www.w3.org/2000/svg" xmlns:xlink="http://www.w3.org/1999/xlink">
    <!-- Generator: Sketch 64 (93537) - https://sketch.com -->
    <title>ins</title>
    <desc>Created with Sketch.</desc>
    <g id="Page-1" stroke="none" stroke-width="1" fill="none" fill-rule="evenodd">
        <g id="contacts-copy" transform="translate(-1342.000000, -836.000000)" fill="#FFFFFF">
            <g id="ins" transform="translate(1342.000000, 836.000000)">
                <rect id="Rectangle-Copy" opacity="0.01" x="0" y="0" width="22" height="22"></rect>
                <path d="M11.4803775,3.99875163 C12.9501588,4.00025511 13.2087778,4.00999444 13.8902301,4.0423382 C14.6342713,4.07513848 15.1431214,4.19544177 15.5889264,4.36777674 C16.0539654,4.54278276 16.4779716,4.81907428 16.8281401,5.17464204 C17.1865364,5.5247609 17.4600888,5.94592921 17.6378979,6.41635135 C17.8102572,6.85952893 17.9305776,7.37097812 17.9633825,8.11491393 C17.9887317,8.69191994 17.9961518,8.96513074 17.9982153,9.9366002 L17.9980514,11.8854779 C17.9951612,13.0047442 17.9847732,13.2751047 17.9579328,13.8860522 C17.9251279,14.629988 17.8047007,15.1387662 17.6324482,15.5846148 C17.2686021,16.5254591 16.524561,17.2693949 15.5834767,17.6331894 C15.1403432,17.8055244 14.6288216,17.9258277 13.8847805,17.958628 C13.2398001,17.9870477 12.9743547,17.9969796 11.6892867,17.9991598 L10.3083137,17.9991598 C9.02322574,17.9969796 8.75771321,17.9870477 8.11282509,17.958628 C7.36867713,17.9258277 6.85993379,17.8055244 6.41402203,17.6331894 C5.94898297,17.4581834 5.52497677,17.1818919 5.17480835,16.8263241 C4.81919025,16.4762053 4.54296643,16.0550369 4.36515738,15.5846148 C4.19279801,15.1414372 4.07237086,14.629988 4.03956594,13.8860522 C4.00974329,13.2072216 4.00023219,12.9488688 3.99874937,11.4793165 L3.99875145,10.5216476 C4.00025515,9.05207438 4.00999585,8.793492 4.04234419,8.11213607 C4.07514912,7.36820026 4.19546944,6.85952893 4.36782881,6.4136803 C4.54296643,5.94870707 4.81919025,5.5247609 5.17480835,5.17464204 C5.52497677,4.81629642 5.94620472,4.54278276 6.41680028,4.36499888 C6.85993379,4.19277072 7.37145539,4.07236062 8.11549652,4.03956034 C8.79442323,4.00974191 9.05281261,4.00023215 10.522573,3.99874954 Z M11.6858609,5.27087221 L10.3290013,5.27087221 C9.06859158,5.27307244 8.81630936,5.28307136 8.17843493,5.31139888 C7.49733221,5.3415281 7.12525824,5.45638248 6.87906109,5.55211226 C6.57537521,5.66418878 6.30182282,5.84197266 6.0748598,6.07445927 C5.83956202,6.29882592 5.66175296,6.57501064 5.54955376,6.87865353 C5.45381042,7.12481583 5.33893978,7.49405927 5.30891311,8.17784343 C5.27600137,8.91355246 5.26788026,9.13781231 5.26788026,11.005932 L5.26793216,11.250673 C5.26866976,12.8952641 5.27749736,13.1292081 5.30891311,13.8341274 C5.33893978,14.5151337 5.45381042,14.887155 5.54955376,15.1333173 C5.66175296,15.4368533 5.83956202,15.710367 6.07208155,15.9374047 C6.29637314,16.1698913 6.57270378,16.3476752 6.87628284,16.4598585 C7.12247999,16.5555883 7.49177571,16.6704427 8.17565668,16.7004651 C8.84467487,16.7303806 9.09085966,16.7398109 10.5338361,16.7412783 L11.4746061,16.7412783 C12.9171852,16.7398109 13.1612946,16.7303806 13.8327414,16.7004651 C14.513951,16.6704427 14.8859181,16.5555883 15.1321153,16.4598585 C15.7421584,16.2245941 16.2263248,15.7404962 16.4616226,15.1305394 C16.5573659,14.8843771 16.6722366,14.5151337 16.7023701,13.8313495 C16.7321927,13.1599978 16.7417038,12.9181303 16.7431866,11.4761568 L16.7431866,10.535645 C16.7417038,9.09327009 16.7321927,8.84919515 16.7023701,8.17784343 C16.6722366,7.49673033 16.5573659,7.12481583 16.4616226,6.87865353 C16.3494234,6.57501064 16.1716143,6.30149698 15.9390948,6.07445927 C15.7148032,5.84197266 15.4384726,5.66418878 15.1348935,5.55211226 C14.8886964,5.45638248 14.5194006,5.3415281 13.8355197,5.31139888 C13.1999524,5.28307136 12.9480645,5.27307244 11.6858609,5.27087221 Z M11.0014742,7.4037784 C12.9875073,7.4037784 14.5986881,9.01473116 14.5986881,11.0004831 C14.5986881,12.986235 12.9875073,14.5971878 11.0014742,14.5971878 C9.01554797,14.5971878 7.40426031,12.986235 7.40426031,11.0004831 C7.40426031,9.01473116 9.01554797,7.4037784 11.0014742,7.4037784 Z M11.0014742,8.66739017 C9.71310655,8.66739017 8.66805098,9.712191 8.66805098,11.0004831 C8.66805098,12.2887752 9.71310655,13.333576 11.0014742,13.333576 C12.2899487,13.333576 13.3348974,12.2887752 13.3348974,11.0004831 C13.3348974,9.712191 12.2899487,8.66739017 11.0014742,8.66739017 Z M14.740914,6.42190707 C15.2047776,6.42190707 15.5808053,6.79777469 15.5808053,7.26157266 C15.5808053,7.72526379 15.2047776,8.10123824 14.740914,8.10123824 C14.2771572,8.10123824 13.9011295,7.72526379 13.9011295,7.26157266 C13.9011295,6.79777469 14.2771572,6.42190707 14.740914,6.42190707 Z" id="Combined-Shape" fill-rule="nonzero"></path>
            </g>
        </g>
    </g>
</svg>