<?xml version="1.0" encoding="UTF-8"?>
<svg width="71px" height="71px" viewBox="0 0 71 71" version="1.1" xmlns="http://www.w3.org/2000/svg" xmlns:xlink="http://www.w3.org/1999/xlink">
    <title>Combined Shape</title>
    <g id="Page-1" stroke="none" stroke-width="1" fill="none" fill-rule="evenodd" opacity="0.5">
        <path d="M70.865,7.10542736e-15 L70.865,70.867 L0,70.867 L0,7.10542736e-15 L70.865,7.10542736e-15 Z M20.043,11.215 L18.449,14.961 L19.857,15.488 L19.5699574,15.9860247 C12.2864608,28.7013609 11.4413148,36.2359175 11.4105304,38.8605301 L11.4105304,38.8605301 L11.4102728,39.1416383 C11.4157076,39.6603228 11.453,39.918 11.453,39.918 C13.232,58.281 32.793,59.564 34.783,59.651 L34.783,59.651 L34.902,59.651 L34.9270741,59.6524074 L34.949,59.653 L34.949,59.65 L35.853,59.65 L35.853,59.652 C36.2846199,59.6424432 57.55179,59.07549 59.412,39.918 C59.412,39.918 60.545,32.117 51.264,15.969 L51.264,15.969 L52.575,15.506 L51.059,11.733 L43.133,14.534 L44.133,17.024 L44.131,17.026 C44.1394375,17.044 44.15275,17.07325 44.17,17.116 L44.17,17.116 L44.488,17.911 L44.5422357,18.0515617 C46.3823727,22.847713 53.11068,43.13212 35.853,44.53 L35.853,44.53 L34.949,44.53 L34.949,44.524 L34.3992286,44.4723006 C16.531078,42.5505351 25.70026,19.41771 26.617,17.211 L26.617,17.211 L27.912,14.164 L20.043,11.215 Z M20.869,47.867 C21.8040181,47.867 22.562,48.5779718 22.562,49.455 C22.562,50.3320282 21.8040181,51.043 20.869,51.043 C19.9339819,51.043 19.176,50.3320282 19.176,49.455 C19.176,48.5779718 19.9339819,47.867 20.869,47.867 Z M50.414,47.867 C51.3893349,47.867 52.18,48.5779718 52.18,49.455 C52.18,50.3320282 51.3893349,51.043 50.414,51.043 C49.4386651,51.043 48.648,50.3320282 48.648,49.455 C48.648,48.5779718 49.4386651,47.867 50.414,47.867 Z M16.865,36.828 C17.8000181,36.828 18.558,37.5389718 18.558,38.416 C18.558,39.2930282 17.8000181,40.004 16.865,40.004 C15.9299819,40.004 15.172,39.2930282 15.172,38.416 C15.172,37.5389718 15.9299819,36.828 16.865,36.828 Z M53.929,36.828 C54.9048872,36.828 55.696,37.5389718 55.696,38.416 C55.696,39.2930282 54.9048872,40.004 53.929,40.004 C52.9531128,40.004 52.162,39.2930282 52.162,38.416 C52.162,37.5389718 52.9531128,36.828 53.929,36.828 Z M19.936,25.562 C20.8710181,25.562 21.629,26.2729718 21.629,27.15 C21.629,28.0270282 20.8710181,28.738 19.936,28.738 C19.0009819,28.738 18.243,28.0270282 18.243,27.15 C18.243,26.2729718 19.0009819,25.562 19.936,25.562 Z M51.389,25.562 C52.3643349,25.562 53.155,26.2729718 53.155,27.15 C53.155,28.0270282 52.3643349,28.738 51.389,28.738 C50.4136651,28.738 49.623,28.0270282 49.623,27.15 C49.623,26.2729718 50.4136651,25.562 51.389,25.562 Z" id="Combined-Shape" fill="#FFFFFF" fill-rule="nonzero"></path>
    </g>
</svg>