<svg width="24" height="24" viewBox="0 0 24 24" fill="none" xmlns="http://www.w3.org/2000/svg">
<g clip-path="url(#clip0_0:3)">
<path d="M6.7579 18.0078C6.9071 18.0078 7.053 17.9632 7.1768 17.8798C7.3006 17.7964 7.3967 17.678 7.4528 17.5397C7.5089 17.4014 7.5224 17.2494 7.4917 17.1034C7.461 16.9573 7.3874 16.8237 7.2803 16.7197L3.5606 13L22.2501 13C22.3494 13.0014 22.4481 12.983 22.5403 12.946C22.6326 12.9089 22.7165 12.8539 22.7873 12.7841C22.8581 12.7143 22.9143 12.6312 22.9526 12.5395C22.991 12.4478 23.0107 12.3494 23.0107 12.25C23.0107 12.1506 22.991 12.0522 22.9526 11.9605C22.9143 11.8688 22.8581 11.7857 22.7873 11.7159C22.7165 11.6461 22.6326 11.5911 22.5403 11.554C22.4481 11.517 22.3494 11.4986 22.2501 11.5L3.5606 11.5L7.2803 7.7803C7.3523 7.7112 7.4098 7.6284 7.4494 7.5368C7.489 7.4452 7.5099 7.3466 7.5109 7.2468C7.5119 7.1471 7.493 7.0481 7.4553 6.9557C7.4176 6.8633 7.3618 6.7794 7.2912 6.7088C7.2207 6.6383 7.1367 6.5825 7.0444 6.5448C6.952 6.5071 6.853 6.4882 6.7532 6.4892C6.6534 6.4902 6.5549 6.5111 6.4633 6.5507C6.3717 6.5903 6.2889 6.6477 6.2198 6.7197L1.2198 11.7197C1.0792 11.8604 1.0002 12.0511 1.0002 12.25C1.0002 12.4489 1.0792 12.6396 1.2198 12.7803L6.2198 17.7803C6.2897 17.8523 6.3733 17.9095 6.4658 17.9486C6.5582 17.9877 6.6575 18.0078 6.7579 18.0078Z" fill="white"/>
</g>
<defs>
<clipPath id="clip0_0:3">
<rect width="24" height="24" fill="white" transform="translate(24 24) rotate(-180)"/>
</clipPath>
</defs>
</svg>
