<?xml version="1.0" encoding="UTF-8"?>
<svg width="147px" height="60px" viewBox="0 0 147 60" version="1.1" xmlns="http://www.w3.org/2000/svg" xmlns:xlink="http://www.w3.org/1999/xlink">
    <!-- Generator: Sketch 64 (93537) - https://sketch.com -->
    <title>logo</title>
    <desc>Created with Sketch.</desc>
    <g id="Page-1" stroke="none" stroke-width="1" fill="none" fill-rule="evenodd">
        <g id="contacts" transform="translate(-50.000000, -30.000000)" fill="#FFFFFF">
            <path d="M79.7141477,65.3839676 L82.4220676,68.0918876 L82.4220676,82.0235274 L87.1204276,82.0235274 L79.7152277,89.4269273 L67.6930278,77.4047275 L79.7141477,65.3839676 Z M153.957595,67.2619436 C158.097595,67.2619436 159.734515,69.9576235 159.734515,73.9313035 L159.734515,75.3759835 L151.212955,75.3759835 C151.187035,77.4459835 152.823955,77.8304634 154.919875,77.8304634 C155.809795,77.8304634 157.303795,77.6148234 158.676115,77.3012635 L159.277675,80.2629834 C157.809595,80.7432234 155.931475,81.0081834 154.341715,81.0081834 C150.007315,81.0081834 147.215875,79.5887034 147.215875,74.3388235 C147.215875,68.9712235 149.983915,67.2619436 153.957595,67.2619436 Z M58.7037559,63.7215596 L75.7054757,63.7226396 L75.7054757,67.5573596 L66.3163158,76.9472395 L65.8562358,77.4069595 L66.3163158,77.8663194 L69.1743558,80.7239994 L58.7037559,80.7239994 L58.7037559,63.7215596 Z M87.5561716,63.7226396 L96.9456915,73.1139595 L97.4036115,73.5718795 L97.8647714,73.1125195 L100.723171,70.2533995 L100.724251,80.7239994 L83.7196516,80.7239994 L83.7203716,63.7226396 L87.5561716,63.7226396 Z M144.440095,62.1807956 C145.404175,62.1807956 146.006095,62.3024756 146.799895,62.5436756 L146.174575,65.5291556 C145.692535,65.4078356 145.067575,65.3351156 144.584815,65.3351156 C143.597335,65.3351156 143.236255,66.0817556 143.236255,67.1171156 L143.236255,67.5743156 L146.053255,67.5743156 L146.053255,70.3437955 L143.236255,70.3437955 L143.236255,80.7200754 L139.215415,80.7200754 L139.215415,70.3437955 L137.290495,70.3437955 L137.290495,67.5743156 L139.215415,67.5743156 L139.215415,67.0933556 C139.215415,63.0235556 141.695455,62.1807956 144.440095,62.1807956 Z M121.847107,63.6981956 L121.847107,77.4933954 L129.239707,77.4933954 L129.239707,80.7200754 L117.755707,80.7200754 L117.755707,63.6981956 L121.847107,63.6981956 Z M135.094639,67.5735596 L135.094639,80.7200394 L131.074159,80.7200394 L131.074159,67.5735596 L135.094639,67.5735596 Z M153.667435,70.1027035 C152.295115,70.1027035 151.405195,71.0657035 151.332475,72.7980235 L155.617915,72.7980235 C155.666875,71.2104235 154.966675,70.1027035 153.667435,70.1027035 Z M102.022879,52.3096677 L109.425559,59.7141477 L97.4047995,71.7349075 L85.3851196,59.7141477 L88.0966396,57.0037077 L102.022879,57.0026277 L102.022879,52.3096677 Z M62.0230279,47.6917318 L74.0445077,59.7139317 L71.3340678,62.4243716 L57.4035079,62.4243716 L57.4035079,67.1169716 L50.000108,59.7139317 L62.0230279,47.6917318 Z M135.094639,61.6256396 L135.094639,65.2159196 L131.074159,65.2159196 L131.074159,61.6256396 L135.094639,61.6256396 Z M154.362055,38.4657959 C157.052695,38.4657959 158.350135,39.0425159 159.670615,39.6192359 L158.494855,42.4538759 C157.244935,42.0953159 156.209215,41.7572759 154.482295,41.7572759 C152.775895,41.7572759 152.245975,42.4059959 152.245975,43.1259958 C152.245975,45.3867958 160.465135,45.3867958 160.465135,50.7929158 C160.465135,54.5163957 156.907975,55.9607157 153.400135,55.9607157 C150.611935,55.9607157 148.978975,55.4541957 147.704935,54.7586757 L148.857655,51.8246757 C150.372175,52.3538757 151.477375,52.5936357 153.351535,52.5936357 C155.394175,52.5936357 156.331615,51.9704757 156.331615,50.9372758 C156.331615,48.1735558 148.256815,48.9176758 148.256815,43.1504758 C148.256815,39.8834759 151.357495,38.4657959 154.362055,38.4657959 Z M90.2522475,38.7014159 L100.722847,38.7028559 L100.724287,55.7052957 L83.7214876,55.7031357 L83.7214876,51.8694957 L93.1138875,42.4824959 L93.5732475,42.0224159 L90.2522475,38.7014159 Z M58.7037559,38.7014159 L75.7054757,38.7028559 L75.7061957,55.7052957 L71.8693157,55.7052957 L62.0236759,45.8549758 L61.5617959,46.3139758 L58.7037559,49.1723758 L58.7037559,38.7014159 Z M124.346299,38.7070319 C128.166619,38.7070319 130.906939,40.9408319 130.906939,44.7366718 C130.906939,48.0771118 128.166619,50.8894318 123.097819,50.8894318 L121.846819,50.8894318 L121.846819,55.6950717 L117.738139,55.6950717 L117.738139,38.7070319 L124.346299,38.7070319 Z M166.709155,38.7070319 L166.709155,45.6006718 L173.918515,45.6006718 L173.918515,38.7070319 L178.003075,38.7070319 L178.003075,55.6950717 L173.918515,55.6950717 L173.918515,48.7038718 L166.709155,48.7038718 L166.709155,55.6950717 L162.623515,55.6950717 L162.623515,38.7070319 L166.709155,38.7070319 Z M190.813206,38.7070319 L196.533246,55.6950717 L192.304326,55.6950717 L190.693326,50.7195118 L185.358126,50.7195118 L183.748206,55.6950717 L179.519286,55.6950717 L185.238246,38.7070319 L190.813206,38.7070319 Z M141.141991,38.7070319 L146.860591,55.6950717 L142.633111,55.6950717 L141.023191,50.7195118 L135.688351,50.7195118 L134.076991,55.6950717 L129.849511,55.6950717 L135.567031,38.7070319 L141.141991,38.7070319 Z M79.7127797,29.999892 L91.7353395,42.0224519 L79.7127797,54.0417717 L77.0041397,51.3313318 L77.0041397,37.4029319 L72.3100997,37.4029319 L79.7127797,29.999892 Z M188.026086,41.2288319 L186.320046,47.7646318 L189.732486,47.7646318 L188.026086,41.2288319 Z M138.353791,41.2288319 L136.648831,47.7646318 L140.061271,47.7646318 L138.353791,41.2288319 Z M123.817459,41.9027519 L121.846819,41.9027519 L121.846819,47.7401518 L123.241099,47.7401518 C125.789179,47.7401518 126.700339,46.4207518 126.700339,44.8335118 C126.700339,43.1256718 126.005899,41.9027519 123.817459,41.9027519 Z" id="logo"></path>
        </g>
    </g>
</svg>