<?xml version="1.0" encoding="UTF-8"?>
<svg width="147px" height="60px" viewBox="0 0 147 60" version="1.1" xmlns="http://www.w3.org/2000/svg" xmlns:xlink="http://www.w3.org/1999/xlink">
    <!-- Generator: Sketch 64 (93537) - https://sketch.com -->
    <title>Group 30</title>
    <desc>Created with Sketch.</desc>
    <defs>
        <polygon id="path-1" points="0.279516176 0.0400647059 17.3070882 0.0400647059 17.3070882 17.0419838 0.279516176 17.0419838"></polygon>
        <polygon id="path-3" points="0 59.4755515 146.652676 59.4755515 146.652676 -1.02401747e-14 0 -1.02401747e-14"></polygon>
    </defs>
    <g id="Page-1" stroke="none" stroke-width="1" fill="none" fill-rule="evenodd">
        <g id="video-copy-9" transform="translate(-50.000000, -30.000000)">
            <g id="Group-30" transform="translate(50.000000, 30.000000)">
                <path d="M67.7934816,8.71414559 L74.4070404,8.71414559 C78.2304816,8.71414559 80.9730404,10.9497706 80.9730404,14.7487118 C80.9730404,18.0918809 78.2304816,20.9064985 73.1575404,20.9064985 L71.9055184,20.9064985 L71.9055184,25.7160647 L67.7934816,25.7160647 L67.7934816,8.71414559 Z M73.3009375,17.7546456 C75.8510993,17.7546456 76.7630037,16.4341676 76.7630037,14.8456309 C76.7630037,13.1363956 76.0679963,11.9124765 73.8777684,11.9124765 L71.9055184,11.9124765 L71.9055184,17.7546456 L73.3009375,17.7546456 Z" id="Fill-1" fill="#007C4C"></path>
                <path d="M97.7847603,24.7789037 L98.9384221,21.8425066 C100.454179,22.372139 101.560282,22.6120949 103.435974,22.6120949 C105.480282,22.6120949 106.418488,21.9884257 106.418488,20.9543816 C106.418488,18.1884037 98.3370912,18.9331316 98.3370912,13.1612199 C98.3370912,9.89155074 101.440304,8.4727125 104.447319,8.4727125 C107.140157,8.4727125 108.438657,9.04990368 109.760216,9.62709485 L108.583496,12.4640507 C107.332554,12.1051978 106.295988,11.7668816 104.567657,11.7668816 C102.859863,11.7668816 102.32951,12.4161316 102.32951,13.1367199 C102.32951,15.3993669 110.555385,15.3993669 110.555385,20.8099037 C110.555385,24.5364257 106.995319,25.9819257 103.484613,25.9819257 C100.694135,25.9819257 99.0598412,25.4749919 97.7847603,24.7789037" id="Fill-3" fill="#007C4C"></path>
                <polygon id="Fill-5" fill="#007C4C" points="112.715529 8.71414559 116.804507 8.71414559 116.804507 15.6134176 124.019757 15.6134176 124.019757 8.71414559 128.107654 8.71414559 128.107654 25.7160647 124.019757 25.7160647 124.019757 18.7191529 116.804507 18.7191529 116.804507 25.7160647 112.715529 25.7160647"></polygon>
                <g id="Group-9" transform="translate(129.345588, 8.674081)">
                    <mask id="mask-2" fill="white">
                        <use xlink:href="#path-1"></use>
                    </mask>
                    <g id="Clip-8"></g>
                    <path d="M11.5826632,0.0400647059 L6.00314853,0.0400647059 L0.279516176,17.0419838 L4.51189118,17.0419838 L6.12312647,12.0623588 L11.4626853,12.0623588 L13.0750015,17.0419838 L17.3073765,17.0419838 L11.5826632,0.0400647059 Z M7.08583235,9.10506471 L8.79326618,2.563925 L10.5010603,9.10506471 L7.08583235,9.10506471 Z" id="Fill-7" fill="#007C4C" mask="url(#mask-2)"></path>
                </g>
                <path d="M91.2164544,8.71414559 L85.6369397,8.71414559 L79.9147485,25.7160647 L84.1456824,25.7160647 L85.7583588,20.7364397 L91.0975574,20.7364397 L92.7087926,25.7160647 L96.9397265,25.7160647 L91.2164544,8.71414559 Z M86.7196235,17.7791456 L88.4259765,11.2380059 L90.1348515,17.7791456 L86.7196235,17.7791456 Z" id="Fill-10" fill="#007C4C"></path>
                <polygon id="Fill-12" fill="#007C4C" points="40.2851338 8.708525 50.7642882 8.70996618 50.7657294 25.7262971 33.7490382 25.7241353 33.7490382 21.8873632 43.1491118 12.4926941 43.6088471 12.0322382"></polygon>
                <polygon id="Fill-14" fill="#007C4C" points="8.71086691 8.708525 8.71086691 19.1880397 11.5712419 16.3273044 12.0334993 15.8679294 21.8871831 25.7262971 25.7271978 25.7262971 25.7264772 8.70996618"></polygon>
                <polygon id="Fill-16" fill="#007C4C" points="8.71086691 50.7654412 8.71086691 33.7491103 25.7264772 33.7501912 25.7264772 37.5880441 16.3296463 46.9855956 15.8691904 47.4456912 16.3296463 47.9054265 19.1900213 50.7654412"></polygon>
                <polygon id="Fill-18" fill="#007C4C" points="50.7656934 50.7654412 33.7472007 50.7654412 33.7479213 33.7501912 37.5868551 33.7501912 46.9840463 43.1491838 47.4423404 43.6074779 47.9038772 43.1477426 50.7646125 40.2862868"></polygon>
                <polygon id="Fill-20" fill="#1E194B" points="67.811064 33.7257272 71.9058066 33.7257272 71.9058066 47.5321978 79.3044463 47.5321978 79.3044463 50.761514 67.811064 50.761514"></polygon>
                <mask id="mask-4" fill="white">
                    <use xlink:href="#path-3"></use>
                </mask>
                <g id="Clip-23"></g>
                <path d="M81.1403971,35.2446912 L85.1641618,35.2446912 L85.1641618,31.6514779 L81.1403971,31.6514779 L81.1403971,35.2446912 Z M81.1403971,50.7614779 L85.1641618,50.7614779 L85.1641618,37.6042574 L81.1403971,37.6042574 L81.1403971,50.7614779 Z" id="Fill-22" fill="#1E194B" mask="url(#mask-4)"></path>
                <path d="M89.2883044,40.3767566 L87.3618118,40.3767566 L87.3618118,37.605014 L89.2883044,37.605014 L89.2883044,37.123661 C89.2883044,33.050536 91.7703706,32.2070875 94.5172529,32.2070875 C95.4821206,32.2070875 96.0845324,32.3288669 96.8789809,32.570264 L96.25315,35.5581831 C95.7707162,35.436764 95.1452456,35.3639846 94.6620912,35.3639846 C93.6738044,35.3639846 93.3124294,36.1112346 93.3124294,37.1474404 L93.3124294,37.605014 L96.1317309,37.605014 L96.1317309,40.3767566 L93.3124294,40.3767566 L93.3124294,50.761514 L89.2883044,50.761514 L89.2883044,40.3767566 Z" id="Fill-24" fill="#1E194B" mask="url(#mask-4)"></path>
                <path d="M105.704205,42.8329897 C105.753205,41.2440926 105.052433,40.1354676 103.752132,40.1354676 C102.37869,40.1354676 101.488043,41.0992544 101.415264,42.8329897 L105.704205,42.8329897 Z M97.2953007,44.3750485 C97.2953007,39.0030632 100.065602,37.2923868 104.042529,37.2923868 C108.185911,37.2923868 109.824168,39.9902691 109.824168,43.9671956 L109.824168,45.4130559 L101.295646,45.4130559 C101.269705,47.4847471 102.907962,47.8695412 105.005595,47.8695412 C105.896242,47.8695412 107.391463,47.653725 108.764904,47.3399088 L109.366955,50.3040485 C107.897676,50.7846809 106.018021,51.0498574 104.426962,51.0498574 C100.089021,51.0498574 97.2953007,49.6292176 97.2953007,44.3750485 L97.2953007,44.3750485 Z" id="Fill-25" fill="#1E194B" mask="url(#mask-4)"></path>
                <polygon id="Fill-26" fill="#1E194B" mask="url(#mask-4)" points="29.7370551 -0.000108088235 41.7694375 12.0322743 29.7370551 24.061414 27.0262022 21.3487596 27.0262022 7.40898015 22.3283272 7.40898015"></polygon>
                <polygon id="Fill-27" fill="#1E194B" mask="url(#mask-4)" points="0.000108088235 29.7382081 12.0328507 17.706186 24.0641522 29.7382081 21.3514978 32.4508625 7.40955662 32.4508625 7.40955662 37.1472963"></polygon>
                <polygon id="Fill-28" fill="#1E194B" mask="url(#mask-4)" points="29.7395051 59.4754794 17.7074831 47.4434574 29.7384243 35.4128765 32.4485566 38.1230088 32.4485566 52.0660309 37.1507551 52.0660309"></polygon>
                <polygon id="Fill-29" fill="#1E194B" mask="url(#mask-4)" points="47.4435294 41.7690051 35.4140294 29.7384243 38.1277647 27.0257699 52.0653824 27.024689 52.0653824 22.3278949 59.4741103 29.7384243"></polygon>
            </g>
        </g>
    </g>
</svg>