<?xml version="1.0" encoding="UTF-8"?>
<svg width="22px" height="22px" viewBox="0 0 22 22" version="1.1" xmlns="http://www.w3.org/2000/svg" xmlns:xlink="http://www.w3.org/1999/xlink">
    <!-- Generator: Sketch 64 (93537) - https://sketch.com -->
    <title>Shape</title>
    <desc>Created with Sketch.</desc>
    <g id="Page-1" stroke="none" stroke-width="1" fill="none" fill-rule="evenodd">
        <g id="contacts" transform="translate(-1181.000000, -49.000000)" fill-rule="nonzero" stroke="#FFFFFF">
            <path d="M1200.42105,63.1684319 C1199.18735,63.1684319 1197.97896,62.9758001 1196.83264,62.5968525 C1196.2737,62.4042207 1195.63999,62.5526419 1195.27161,62.9273955 L1193.00108,64.6421338 C1190.39685,63.2526589 1188.72948,61.5863253 1187.35688,58.9989712 L1189.02529,56.7821273 C1189.44529,56.3610908 1189.59583,55.7473731 1189.41583,55.1715996 C1189.0358,54.0200033 1188.84213,52.8105286 1188.84213,51.5789487 C1188.84213,50.7084052 1188.13372,50 1187.26318,50 L1183.57895,50 C1182.70841,50 1182,50.7084052 1182,51.5789487 C1182,61.7357827 1190.26422,70 1200.42105,70 C1201.29159,70 1202,69.2915948 1202,68.4210513 L1202,64.7473805 C1202,63.8768371 1201.29159,63.1684319 1200.42105,63.1684319 Z" id="Shape"></path>
        </g>
    </g>
</svg>