<?xml version="1.0" encoding="UTF-8"?>
<svg width="35px" height="42px" viewBox="0 0 35 42" version="1.1" xmlns="http://www.w3.org/2000/svg" xmlns:xlink="http://www.w3.org/1999/xlink">
    <!-- Generator: Sketch 64 (93537) - https://sketch.com -->
    <title>Combined Shape</title>
    <desc>Created with Sketch.</desc>
    <g id="Page-1" stroke="none" stroke-width="1" fill="none" fill-rule="evenodd">
        <path d="M30.1639344,2.48689958e-14 C32.816612,2.48689958e-14 34.9726776,2.15606557 34.9726776,4.80874317 L34.9726776,4.80874317 L34.9726776,37.1584699 C34.9726776,39.8111475 32.816612,41.9672131 30.1639344,41.9672131 L30.1639344,41.9672131 L4.80874317,41.9672131 C2.15606557,41.9672131 -7.10542736e-15,39.8111475 -7.10542736e-15,37.1584699 L-7.10542736e-15,37.1584699 L-7.10542736e-15,4.80874317 C-7.10542736e-15,2.15606557 2.15606557,2.48689958e-14 4.80874317,2.48689958e-14 L4.80874317,2.48689958e-14 Z M8.7431694,24.4808743 L6.55737705,24.4808743 C5.83344262,24.4808743 5.24590164,25.0684153 5.24590164,25.7923497 L5.24590164,25.7923497 L5.24590164,33.6612022 C5.24590164,34.3851366 5.83344262,34.9726776 6.55737705,34.9726776 C7.28131148,34.9726776 7.86885246,34.3851366 7.86885246,33.6612022 L7.86885246,33.6612022 L7.86885246,31.4754098 L8.7431694,31.4754098 C10.6719126,31.4754098 12.2404372,29.9068852 12.2404372,27.9781421 C12.2404372,26.0493989 10.6719126,24.4808743 8.7431694,24.4808743 L8.7431694,24.4808743 Z M17.9234973,24.4808743 L15.3005464,24.4808743 C14.576612,24.4808743 13.989071,25.0684153 13.989071,25.7923497 L13.989071,25.7923497 L13.989071,33.6612022 C13.989071,34.3851366 14.576612,34.9726776 15.3005464,34.9726776 L15.3005464,34.9726776 L17.9234973,34.9726776 C19.610929,34.9726776 20.9836066,33.6 20.9836066,31.9125683 L20.9836066,31.9125683 L20.9836066,27.5409836 C20.9836066,25.8535519 19.610929,24.4808743 17.9234973,24.4808743 L17.9234973,24.4808743 Z M28.4153005,24.4808743 L25.7923497,24.4808743 C24.104918,24.4808743 22.7322404,25.8535519 22.7322404,27.5409836 L22.7322404,27.5409836 L22.7322404,33.6612022 C22.7322404,34.3851366 23.3197814,34.9726776 24.0437158,34.9726776 C24.7676503,34.9726776 25.3551913,34.3851366 25.3551913,33.6612022 L25.3551913,33.6612022 L25.3551913,31.4754098 L28.4153005,31.4754098 C29.139235,31.4754098 29.726776,30.8878689 29.726776,30.1639344 C29.726776,29.44 29.139235,28.852459 28.4153005,28.852459 L28.4153005,28.852459 L25.3551913,28.852459 L25.3551913,27.5409836 C25.3551913,27.2996721 25.5510383,27.1038251 25.7923497,27.1038251 L25.7923497,27.1038251 L28.4153005,27.1038251 C29.139235,27.1038251 29.726776,26.5162842 29.726776,25.7923497 C29.726776,25.0684153 29.139235,24.4808743 28.4153005,24.4808743 L28.4153005,24.4808743 Z M17.9234973,27.1038251 C18.1648087,27.1038251 18.3606557,27.2996721 18.3606557,27.5409836 L18.3606557,27.5409836 L18.3606557,31.9125683 C18.3606557,32.1538798 18.1648087,32.3497268 17.9234973,32.3497268 L17.9234973,32.3497268 L16.6120219,32.3497268 L16.6120219,27.1038251 Z M8.7431694,27.1038251 C9.22579235,27.1038251 9.61748634,27.4955191 9.61748634,27.9781421 C9.61748634,28.460765 9.22579235,28.852459 8.7431694,28.852459 L8.7431694,28.852459 L7.86885246,28.852459 L7.86885246,27.1038251 Z" id="Combined-Shape" fill="#5D5DFF" fill-rule="nonzero"></path>
    </g>
</svg>