<svg width="40" height="40" viewBox="0 0 40 40" fill="none" xmlns="http://www.w3.org/2000/svg">
<path d="M9.47174 2.39049C8.85612 2.34049 8.17174 2.51862 7.54049 2.96237C6.98424 3.34987 5.78424 4.30299 4.66237 5.38112C4.10299 5.91862 3.56862 6.47799 3.15612 7.028C2.74049 7.57799 2.37799 8.08112 2.39987 8.81237C2.42174 9.46862 2.48737 11.4092 3.88424 14.3842C5.28112 17.3561 7.99049 21.4342 13.2749 26.7217C18.5624 32.0092 22.6405 34.7186 25.6124 36.1155C28.5842 37.5124 30.528 37.578 31.1842 37.5999C31.9124 37.6217 32.4155 37.2592 32.9655 36.8436C33.5155 36.428 34.0749 35.8967 34.6124 35.3374C35.6874 34.2155 36.6405 33.0155 37.028 32.4592C37.9124 31.1999 37.7655 29.7124 36.7811 29.0217C36.1624 28.5874 30.4717 24.7999 29.6155 24.2749C28.7467 23.7436 27.7467 23.9842 26.853 24.4561C26.1499 24.828 24.2467 25.9186 23.703 26.2311C23.2936 25.9717 21.7405 24.9374 18.3999 21.5967C15.0561 18.2561 14.0249 16.703 13.7655 16.2936C14.078 15.7499 15.1655 13.8561 15.5405 13.1405C16.0092 12.2499 16.2717 11.2405 15.7124 10.3655C15.478 9.99362 14.4124 8.37175 13.3374 6.74362C12.2592 5.1155 11.2374 3.57174 10.9717 3.20299V3.19987C10.6249 2.72175 10.0842 2.44049 9.47174 2.39049ZM9.32487 4.02487C9.54362 4.05299 9.67487 4.14049 9.67487 4.14049C9.80299 4.31862 10.9249 5.99987 11.9999 7.62487C13.0749 9.253 14.1717 10.9217 14.3624 11.2249C14.3936 11.2717 14.4374 11.803 14.1249 12.3936V12.3967C13.7717 13.0686 12.1249 15.9467 12.1249 15.9467L11.8967 16.3499L12.1311 16.7499C12.1311 16.7499 13.3592 18.8217 17.2655 22.728C21.1749 26.6342 23.2467 27.8655 23.2467 27.8655L23.6467 28.0999L24.0499 27.8717C24.0499 27.8717 26.9217 26.228 27.5999 25.8717C28.1905 25.5624 28.7217 25.603 28.7842 25.6405C29.3374 25.9811 35.4842 30.0655 35.8624 30.3311C35.8749 30.3405 36.2092 30.8467 35.7217 31.5405H35.7186C35.4249 31.9624 34.4624 33.1842 33.4592 34.228C32.9561 34.7499 32.4405 35.2374 32.003 35.5655C31.5655 35.8936 31.1749 35.9967 31.2374 35.9999C30.5561 35.978 29.053 35.9624 26.2936 34.6655C23.5342 33.3717 19.5967 30.7811 14.4061 25.5874C9.21862 20.3999 6.62799 16.4624 5.33112 13.6999C4.03737 10.9405 4.02174 9.43737 3.99987 8.75924C4.00299 8.82174 4.10612 8.428 4.43424 7.9905C4.76237 7.553 5.24674 7.03425 5.76862 6.53112C6.81549 5.528 8.03424 4.5655 8.45612 4.27175V4.27487C8.80299 4.03112 9.10612 3.99987 9.32487 4.02487Z" fill="#5D5DFF"/>
</svg>
