<svg width="24" height="28" viewBox="0 0 24 28" fill="none" xmlns="http://www.w3.org/2000/svg">
<path d="M19.8 9.84308C22.1628 11.2072 23.3442 11.8893 23.7406 12.7798C24.0865 13.5565 24.0865 14.4435 23.7406 15.2202C23.3442 16.1107 22.1628 16.7928 19.8 18.1569L7.19999 25.4315C4.83722 26.7957 3.65583 27.4778 2.68641 27.3759C1.84084 27.287 1.0727 26.8435 0.572947 26.1557C-1.28368e-06 25.3671 -1.22405e-06 24.0029 -1.10479e-06 21.2746L-4.68821e-07 6.72538C-3.49564e-07 3.99708 -2.89935e-07 2.63293 0.572948 1.84434C1.0727 1.15649 1.84084 0.713002 2.68641 0.624129C3.65583 0.522239 4.83722 1.20431 7.2 2.56846L19.8 9.84308Z" fill="#5D5DFF"/>
</svg>
