<?xml version="1.0" encoding="UTF-8"?>
<svg width="18px" height="20px" viewBox="0 0 18 20" version="1.1" xmlns="http://www.w3.org/2000/svg" xmlns:xlink="http://www.w3.org/1999/xlink">
    <!-- Generator: Sketch 64 (93537) - https://sketch.com -->
    <title>Combined Shape</title>
    <desc>Created with Sketch.</desc>
    <g id="Page-1" stroke="none" stroke-width="1" fill="none" fill-rule="evenodd">
        <g id="contacts" transform="translate(-1297.000000, -50.000000)" fill-rule="nonzero" stroke="#FFFFFF">
            <path d="M1306,60.9000717 C1308.45133,60.9000717 1310.65967,61.9098733 1312.07983,62.7571684 C1313.26392,63.4646539 1314,64.8383654 1314,66.3421833 L1314,66.3421833 L1314,66.9187186 C1314,68.0665579 1313.14583,69 1312.0955,69 L1312.0955,69 L1299.9045,69 C1298.85417,69 1298,68.0665579 1298,66.9187186 L1298,66.9187186 L1298,66.3421833 C1298,64.8383654 1298.73608,63.4646539 1299.92017,62.7571684 C1301.34025,61.9099577 1303.54867,60.9000717 1306,60.9000717 Z M1306,51 C1308.45142,51 1310.44442,53.0189282 1310.44442,55.5000633 C1310.44442,57.9811984 1308.45142,60.0000422 1306,60.0000422 C1303.54858,60.0000422 1301.55558,57.981114 1301.55558,55.4999789 C1301.55558,53.0188438 1303.54858,51 1306,51 Z" id="Combined-Shape"></path>
        </g>
    </g>
</svg>