<?xml version="1.0" encoding="UTF-8"?>
<svg width="22px" height="22px" viewBox="0 0 22 22" version="1.1" xmlns="http://www.w3.org/2000/svg" xmlns:xlink="http://www.w3.org/1999/xlink">
    <!-- Generator: Sketch 64 (93537) - https://sketch.com -->
    <title>yt</title>
    <desc>Created with Sketch.</desc>
    <g id="Page-1" stroke="none" stroke-width="1" fill="none" fill-rule="evenodd">
        <g id="contacts-copy" transform="translate(-1380.000000, -836.000000)" fill="#FFFFFF">
            <g id="yt" transform="translate(1380.000000, 836.000000)">
                <rect id="Rectangle-Copy-2" opacity="0.01" x="0" y="0" width="22" height="22"></rect>
                <path d="M9.36363636,13.8214435 L9.36363636,9.17855645 L13.5454545,11.5000887 L9.36363636,13.8214435 Z M18.6656364,7.71768548 C18.4816364,7.04154032 17.9394545,6.50910484 17.2510909,6.32840323 C16.0033636,6 11,6 11,6 C11,6 5.99663636,6 4.74890909,6.32840323 C4.06054545,6.50910484 3.51836364,7.04154032 3.33436364,7.71768548 C3,8.94312097 3,11.5 3,11.5 C3,11.5 3,14.0567903 3.33436364,15.2823145 C3.51836364,15.9584597 4.06054545,16.4908952 4.74890909,16.6716855 C5.99663636,17 11,17 11,17 C11,17 16.0033636,17 17.2510909,16.6716855 C17.9394545,16.4908952 18.4816364,15.9584597 18.6656364,15.2823145 C19,14.0567903 19,11.5 19,11.5 C19,11.5 19,8.94312097 18.6656364,7.71768548 L18.6656364,7.71768548 Z" id="Fill-1"></path>
            </g>
        </g>
    </g>
</svg>